<svg viewBox="0 0 24 24" xmlns="http://www.w3.org/2000/svg"><path d="m22.46 7.57l-10.103-5.455c-.223-.12-.49-.12-.713 0l-10.101 5.455c-.364.197-.5.652-.303 1.017.135.25.394.393.66.393.12 0 .243-.03.356-.09l.815-.44 1.629 11.513c.214 1.215 1.308 2.062 2.658 2.062h9.282c1.352 0 2.445-.848 2.663-2.087l1.626-11.49.818.442c.364.193.82.06 1.017-.304.196-.363.06-.818-.304-1.016zm-4.638 12.133c-.107.606-.703.822-1.18.822h-9.282c-.48 0-1.075-.216-1.178-.798l-1.702-12.037 7.52-4.062 7.522 4.06z" stroke="none" fill="#ffffff"/><path d="m8.22 12.184c0 2.084 1.695 3.78 3.78 3.78s3.78-1.696 3.78-3.78-1.695-3.78-3.78-3.78-3.78 1.696-3.78 3.78zm6.06 0c0 1.258-1.022 2.28-2.28 2.28s-2.28-1.022-2.28-2.28 1.022-2.28 2.28-2.28 2.28 1.022 2.28 2.28z" stroke="none" fill="#ffffff"/></svg>
